<?xml version="1.0" encoding="utf-8"?>
<!-- Generator: Adobe Illustrator 19.2.0, SVG Export Plug-In . SVG Version: 6.00 Build 0)  -->
<svg version="1.1" id="Calque_1" xmlns="http://www.w3.org/2000/svg" xmlns:xlink="http://www.w3.org/1999/xlink" x="0px" y="0px"
	 viewBox="0 0 368 319.5" style="enable-background:new 0 0 368 319.5;" xml:space="preserve">
<style type="text/css">
	.st0{fill:#3D8EB9;stroke:#FFFFFF;stroke-width:5;stroke-miterlimit:10;}
	.st1{fill:#54ACD2;stroke:#F5FCFF;stroke-width:5;stroke-miterlimit:10;}
	.st2{fill:#54ACD2;stroke:#FFFFFF;stroke-width:5;stroke-miterlimit:10;}
	.st3{opacity:0.74;}
	.st4{fill:none;stroke:#FFFFFF;stroke-width:5;stroke-miterlimit:10;}
</style>
<g id="Calque_4">
	<g>
		<g>
			<g id="XMLID_243_">
				<g id="XMLID_244_">
					<g id="XMLID_245_">
						<path id="XMLID_246_" class="st0" d="M217.7,38.4c-19,20-38,40.1-57.3,59.7c65.7,53,96.7,122.2,92.3,205.1
							c28.2-0.4,56.2-0.9,84.2-1.6C343.7,196.4,302.2,104.1,217.7,38.4z"/>
					</g>
				</g>
			</g>
		</g>
	</g>
</g>
<g id="Calque_2">
	<g>
		<g>
			<g id="XMLID_80_">
				<g id="XMLID_81_">
					<g id="XMLID_82_">
						<path id="XMLID_84_" class="st1" d="M459.1,254.3"/>
						<path id="XMLID_83_" class="st2" d="M55.1,221.3c19.9,27.5,39.8,55.3,60.1,82.5c96.2-38.5,129.4-126.7,151-220.2
							c-25.3-26.2-51.4-50.3-81.1-71.5c-18.5,86.2-47.7,165-133.5,204.7"/>
					</g>
				</g>
			</g>
		</g>
	</g>
</g>
<g id="Calque_1_1_">
	<g>
		<g>
			<g id="XMLID_107_">
				<g id="XMLID_111_" class="st3">
					<path id="XMLID_113_" class="st2" d="M117.9,16.4"/>
					<line id="XMLID_112_" class="st4" x1="18.9" y1="307.4" x2="18.9" y2="16.4"/>
				</g>
				<g id="XMLID_108_">
					<rect id="XMLID_110_" x="15" y="12.2" class="st2" width="99" height="290.9"/>
					<rect id="XMLID_109_" x="15" y="12.2" class="st2" width="99" height="290.9"/>
				</g>
			</g>
		</g>
	</g>
</g>
<g id="Calque_3">
</g>
<g id="Calque_6">
</g>
<g id="Calque_7">
</g>
</svg>
