<?xml version="1.0" encoding="utf-8"?>
<!-- Generator: Adobe Illustrator 19.2.0, SVG Export Plug-In . SVG Version: 6.00 Build 0)  -->
<svg version="1.1" id="Calque_1" xmlns="http://www.w3.org/2000/svg" xmlns:xlink="http://www.w3.org/1999/xlink" x="0px" y="0px"
	 viewBox="0 0 2106.2 372" style="enable-background:new 0 0 2106.2 372;" xml:space="preserve">
<style type="text/css">
	.st0{enable-background:new    ;}
	.st1{fill:#3D8EB9;stroke:#FFFFFF;stroke-width:10;stroke-miterlimit:10;}
</style>
<g id="Calque_3">
</g>
<g id="Calque_6">
</g>
<g class="st0">
	<path class="st1" d="M73.5,312.5h-46V69.8h46V312.5z"/>
	<path class="st1" d="M336.7,312.5L178.3,168.2v144.4h-46V69.8h5.1l158.4,146.9V69.8h46v242.7H336.7z"/>
	<path class="st1" d="M440.2,110.7v60h116.3v43.4H440.2v98.4h-46V69.8h177.6v40.9L440.2,110.7L440.2,110.7z"/>
	<path class="st1" d="M722.6,317.7c-16.6,0-33.2-3.8-48.5-10.2c-15.3-6.4-28.1-15.3-39.6-26.8c-11.5-11.5-20.4-24.3-26.8-39.6
		c-6.4-15.3-10.2-31.9-10.2-48.5c0-17.9,3.8-33.2,10.2-48.5c6.4-15.3,15.3-29.4,26.8-39.6s24.3-20.4,39.6-26.8
		c15.3-6.4,30.7-10.2,48.5-10.2c17.9,0,33.2,3.8,48.5,10.2c15.3,6.4,28.1,15.3,39.6,26.8s20.4,24.3,26.8,39.6
		c6.4,15.3,10.2,31.9,10.2,48.5c0,17.9-3.8,34.5-10.2,48.5c-6.4,15.3-15.3,28.1-26.8,39.6c-11.5,11.5-24.3,20.4-39.6,26.8
		C755.8,313.8,739.2,317.7,722.6,317.7z M722.6,108.1c-11.5,0-21.7,2.6-30.7,6.4c-8.9,5.1-17.9,10.2-25.6,17.9
		c-7.7,7.7-12.8,16.6-16.6,26.8c-3.8,10.2-6.4,20.4-6.4,31.9c0,11.5,2.6,21.7,6.4,31.9c3.8,10.2,10.2,19.2,16.6,26.8
		c7.7,7.7,15.3,14.1,25.6,17.9c8.9,5.1,19.2,6.4,30.7,6.4c11.5,0,21.7-2.6,30.7-6.4c8.9-5.1,17.9-10.2,25.6-17.9
		s12.8-16.6,16.6-26.8c3.8-10.2,6.4-20.4,6.4-31.9c0-10.2-2.6-21.7-6.4-31.9c-3.8-10.2-10.2-19.2-16.6-26.8
		c-7.7-7.7-15.3-14.1-25.6-17.9S732.8,108.1,722.6,108.1z"/>
	<path class="st1" d="M933.4,312.5h-46V69.8h109.9c12.8,0,23,2.6,33.2,6.4c10.2,3.8,19.2,10.2,26.8,17.9
		c7.7,7.7,12.8,16.6,16.6,26.8c3.8,10.2,6.4,21.7,6.4,33.2c0,17.9-5.1,34.5-14.1,48.5c-8.9,14.1-21.7,23-37.1,29.4
		c20.4,26.8,40.9,53.7,60,81.8h-54.9c-10.2-12.8-19.2-25.6-28.1-38.3c-8.9-12.8-17.9-25.6-28.1-39.6h-46v76.7H933.4z M933.4,193.7
		h63.9c3.8,0,8.9-1.3,12.8-2.6c5.1-1.3,8.9-3.8,11.5-7.7c3.8-3.8,6.4-7.7,8.9-12.8c2.6-5.1,3.8-11.5,3.8-17.9c0-3.8,0-7.7-1.3-12.8
		s-2.6-8.9-5.1-14.1c-2.6-3.8-6.4-7.7-11.5-11.5c-5.1-2.6-11.5-5.1-19.2-5.1h-63.9V193.7z"/>
	<path class="st1" d="M1367.8,69.8v242.7h-46V189.9l-75.4,92l-75.4-92v122.7h-46V69.8h2.6l118.8,140.5l118.8-140.5H1367.8z"/>
	<path class="st1" d="M1449.6,85.1c1.3,6.4,1.3,12.8,1.3,20.4s-3.8,14.1-6.4,19.2s-7.7,11.5-14.1,16.6c-6.4,5.1-12.8,7.7-20.4,8.9
		l-5.1-11.5c6.4-2.6,12.8-6.4,16.6-10.2c3.8-3.8,6.4-8.9,6.4-15.3c-6.4,0-12.8-1.3-17.9-6.4c-5.1-5.1-7.7-10.2-7.7-16.6
		s1.3-12.8,6.4-17.9c5.1-5.1,10.2-7.7,16.6-7.7s11.5,1.3,16.6,5.1C1444.4,73.6,1448.3,78.7,1449.6,85.1z"/>
	<path class="st1" d="M1454.7,312.5l122.7-242.7h5.1l122.7,242.7h-49.8l-19.2-38.3h-113.7l-17.9,38.3H1454.7z M1545.4,233.3h69
		l-34.5-72.8L1545.4,233.3z"/>
	<path class="st1" d="M1785.6,312.5h-46V69.8h46V312.5z"/>
	<path class="st1" d="M1917.2,192.4l-92-122.7h57.5l62.6,86.9l62.6-86.9h57.5l-90.7,122.7l89.4,120.1h-57.5l-60-84.3l-60,84.3H1829
		L1917.2,192.4z"/>
</g>
<rect x="1399.6" y="1173.1" style="fill:none;" width="1239.1" height="372"/>
<text transform="matrix(1 0 0 1 1399.6398 1237.1172)" style="font-family:'RageItalic'; font-size:100px;">2016-2017</text>
</svg>
