<?xml version="1.0" encoding="utf-8"?>
<!-- Generator: Adobe Illustrator 19.2.0, SVG Export Plug-In . SVG Version: 6.00 Build 0)  -->
<svg version="1.1" id="Calque_1" xmlns="http://www.w3.org/2000/svg" xmlns:xlink="http://www.w3.org/1999/xlink" x="0px" y="0px"
	 viewBox="0 0 388 380.8" style="enable-background:new 0 0 388 380.8;" xml:space="preserve">
<style type="text/css">
	.st0{fill:none;stroke:#FFFFFF;stroke-width:15;stroke-miterlimit:10;}
	.st1{opacity:0.54;}
	.st2{fill:#FFFFFF;}
	.st3{opacity:0.74;}
	.st4{fill:none;}
	.st5{enable-background:new    ;}
</style>
<g id="Calque_5">
	<ellipse id="XMLID_3_" class="st0" cx="194" cy="192.5" rx="181.5" ry="179.2"/>
</g>
<g id="Calque_4">
	<g id="XMLID_9_">
		<g id="XMLID_62_" class="st1">
			<path id="XMLID_11_" class="st2" d="M253.4,294.2"/>
			<path id="XMLID_23_" class="st2" d="M253.5,273.4"/>
			<path id="XMLID_27_" class="st2" d="M253.1,267.6"/>
			<path id="XMLID_20_" class="st2" d="M253,265.6"/>
			<path id="XMLID_26_" class="st2" d="M252.1,257.4"/>
			<path id="XMLID_19_" class="st2" d="M251.8,254.9"/>
			<path id="XMLID_24_" class="st2" d="M251.8,254.9"/>
			<path id="XMLID_17_" class="st2" d="M251.3,251.4"/>
			<path id="XMLID_16_" class="st2" d="M249.3,241.3"/>
			<path id="XMLID_12_" class="st2" d="M248.8,238.8"/>
			<path id="XMLID_7_" class="st2" d="M247.4,233.8"/>
			<path id="XMLID_25_" class="st2" d="M239.8,211.8"/>
			<path id="XMLID_22_" class="st2" d="M184.6,141.3"/>
			<path id="XMLID_2_" class="st2" d="M316.3,293c4.9-78.5-25.9-147.2-88.9-196.4"/>
		</g>
		<g id="XMLID_55_">
			<g id="XMLID_58_">
				<path id="XMLID_59_" class="st2" d="M230.3,96.8c-14.2,14.9-28.3,29.9-42.7,44.5c49,39.5,72.1,91.1,68.8,152.9
					c21-0.3,41.9-0.7,62.8-1.2C324.3,214.6,293.3,145.8,230.3,96.8z"/>
			</g>
		</g>
	</g>
</g>
<g id="Calque_2">
	<g id="XMLID_4_">
		<g id="XMLID_42_">
			<g id="XMLID_45_">
				<path id="XMLID_15_" class="st2" d="M109.1,233.2"/>
				<path id="XMLID_46_" class="st2" d="M109.1,233.2c14.8,20.5,29.7,41.2,44.8,61.5c71.7-28.7,96.5-94.5,112.6-164.2
					C247.6,111,228.2,93,206,77.2c-13.8,64.3-35.6,123-99.5,152.6"/>
			</g>
		</g>
	</g>
</g>
<g id="Calque_1_1_">
	<g id="XMLID_1_">
		<g id="XMLID_37_" class="st3">
			<path id="XMLID_14_" class="st2" d="M155.9,80.4"/>
			<line id="XMLID_5_" class="st2" x1="82.1" y1="297.3" x2="82.1" y2="80.4"/>
		</g>
		<g id="XMLID_33_">
			<rect id="XMLID_35_" x="79.2" y="77.3" class="st2" width="73.8" height="216.9"/>
			<rect id="XMLID_34_" x="79.2" y="77.3" class="st2" width="73.8" height="216.9"/>
		</g>
	</g>
</g>
<g id="Calque_3">
</g>
<g id="Calque_6">
	<rect id="XMLID_8_" x="127" y="-112" class="st4" width="197" height="399.4"/>
</g>
<g id="Calque_7">
	<rect id="XMLID_13_" x="258.9" y="275.6" class="st4" width="174.6" height="108.2"/>
</g>
<rect x="111.7" y="307.2" class="st4" width="235.9" height="40.7"/>
<g class="st5">
	<path class="st2" d="M118.3,326.5h-3.6v-19h3.6V326.5z"/>
	<path class="st2" d="M138.9,326.5l-12.4-11.3v11.3h-3.6v-19h0.4l12.4,11.5v-11.5h3.6v19H138.9z"/>
	<path class="st2" d="M147,310.7v4.7h9.1v3.4H147v7.7h-3.6v-19h13.9v3.2L147,310.7L147,310.7z"/>
	<path class="st2" d="M169.1,326.9c-1.3,0-2.6-0.3-3.8-0.8s-2.2-1.2-3.1-2.1c-0.9-0.9-1.6-1.9-2.1-3.1s-0.8-2.5-0.8-3.8
		c0-1.4,0.3-2.6,0.8-3.8c0.5-1.2,1.2-2.3,2.1-3.1s1.9-1.6,3.1-2.1c1.2-0.5,2.4-0.8,3.8-0.8c1.4,0,2.6,0.3,3.8,0.8s2.2,1.2,3.1,2.1
		s1.6,1.9,2.1,3.1s0.8,2.5,0.8,3.8c0,1.4-0.3,2.7-0.8,3.8c-0.5,1.2-1.2,2.2-2.1,3.1c-0.9,0.9-1.9,1.6-3.1,2.1
		S170.4,326.9,169.1,326.9z M169.1,310.5c-0.9,0-1.7,0.2-2.4,0.5c-0.7,0.4-1.4,0.8-2,1.4s-1,1.3-1.3,2.1s-0.5,1.6-0.5,2.5
		s0.2,1.7,0.5,2.5s0.8,1.5,1.3,2.1c0.6,0.6,1.2,1.1,2,1.4c0.7,0.4,1.5,0.5,2.4,0.5s1.7-0.2,2.4-0.5c0.7-0.4,1.4-0.8,2-1.4
		s1-1.3,1.3-2.1s0.5-1.6,0.5-2.5c0-0.8-0.2-1.7-0.5-2.5s-0.8-1.5-1.3-2.1c-0.6-0.6-1.2-1.1-2-1.4S169.9,310.5,169.1,310.5z"/>
	<path class="st2" d="M185.6,326.5H182v-19h8.6c1,0,1.8,0.2,2.6,0.5s1.5,0.8,2.1,1.4s1,1.3,1.3,2.1s0.5,1.7,0.5,2.6
		c0,1.4-0.4,2.7-1.1,3.8c-0.7,1.1-1.7,1.8-2.9,2.3c1.6,2.1,3.2,4.2,4.7,6.4h-4.3c-0.8-1-1.5-2-2.2-3s-1.4-2-2.2-3.1h-3.6
		L185.6,326.5L185.6,326.5z M185.6,317.2h5c0.3,0,0.7-0.1,1-0.2c0.4-0.1,0.7-0.3,0.9-0.6c0.3-0.3,0.5-0.6,0.7-1s0.3-0.9,0.3-1.4
		c0-0.3,0-0.6-0.1-1s-0.2-0.7-0.4-1.1c-0.2-0.3-0.5-0.6-0.9-0.9c-0.4-0.2-0.9-0.4-1.5-0.4h-5V317.2z"/>
	<path class="st2" d="M219.6,307.5v19H216v-9.6l-5.9,7.2l-5.9-7.2v9.6h-3.6v-19h0.2l9.3,11l9.3-11H219.6z"/>
	<path class="st2" d="M226,308.7c0.1,0.5,0.1,1,0.1,1.6s-0.3,1.1-0.5,1.5s-0.6,0.9-1.1,1.3s-1,0.6-1.6,0.7l-0.4-0.9
		c0.5-0.2,1-0.5,1.3-0.8s0.5-0.7,0.5-1.2c-0.5,0-1-0.1-1.4-0.5s-0.6-0.8-0.6-1.3s0.1-1,0.5-1.4s0.8-0.6,1.3-0.6s0.9,0.1,1.3,0.4
		C225.6,307.8,225.9,308.2,226,308.7z"/>
	<path class="st2" d="M226.4,326.5l9.6-19h0.4l9.6,19h-3.9l-1.5-3h-8.9l-1.4,3H226.4z M233.5,320.3h5.4l-2.7-5.7L233.5,320.3z"/>
	<path class="st2" d="M252.3,326.5h-3.6v-19h3.6V326.5z"/>
	<path class="st2" d="M262.6,317.1l-7.2-9.6h4.5l4.9,6.8l4.9-6.8h4.5l-7.1,9.6l7,9.4h-4.5l-4.7-6.6l-4.7,6.6h-4.5L262.6,317.1z"/>
</g>
</svg>
