<?xml version="1.0" encoding="utf-8"?>
<!-- Generator: Adobe Illustrator 19.2.0, SVG Export Plug-In . SVG Version: 6.00 Build 0)  -->
<svg version="1.1" id="Calque_1" xmlns="http://www.w3.org/2000/svg" xmlns:xlink="http://www.w3.org/1999/xlink" x="0px" y="0px"
	 viewBox="0 0 249.5 224.5" style="enable-background:new 0 0 249.5 224.5;" xml:space="preserve">
<style type="text/css">
	.st0{opacity:0.54;}
	.st1{fill:#FFFFFF;}
	.st2{opacity:0.74;}
	.st3{fill:none;}
</style>
<g id="Calque_4">
	<g id="XMLID_9_">
		<g id="XMLID_62_" class="st0">
			<path id="XMLID_11_" class="st1" d="M178.9,221.4"/>
			<path id="XMLID_23_" class="st1" d="M179,200.6"/>
			<path id="XMLID_27_" class="st1" d="M178.6,194.8"/>
			<path id="XMLID_20_" class="st1" d="M178.5,192.8"/>
			<path id="XMLID_26_" class="st1" d="M177.6,184.6"/>
			<path id="XMLID_19_" class="st1" d="M177.3,182.1"/>
			<path id="XMLID_24_" class="st1" d="M177.3,182.1"/>
			<path id="XMLID_17_" class="st1" d="M176.8,178.6"/>
			<path id="XMLID_16_" class="st1" d="M174.8,168.5"/>
			<path id="XMLID_12_" class="st1" d="M174.3,166"/>
			<path id="XMLID_7_" class="st1" d="M172.9,161"/>
			<path id="XMLID_25_" class="st1" d="M165.3,139"/>
			<path id="XMLID_22_" class="st1" d="M110.1,68.5"/>
			<path id="XMLID_2_" class="st1" d="M241.8,220.2c4.9-78.5-25.9-147.2-88.9-196.4"/>
		</g>
		<g id="XMLID_55_">
			<g id="XMLID_58_">
				<path id="XMLID_59_" class="st1" d="M155.8,24c-14.2,14.9-28.3,29.9-42.7,44.5c49,39.5,72.1,91.1,68.8,152.9
					c21-0.3,41.9-0.7,62.8-1.2C249.8,141.8,218.8,73,155.8,24z"/>
			</g>
		</g>
	</g>
</g>
<g id="Calque_2">
	<g id="XMLID_4_">
		<g id="XMLID_42_">
			<g id="XMLID_45_">
				<path id="XMLID_15_" class="st1" d="M34.6,160.4"/>
				<path id="XMLID_46_" class="st1" d="M34.6,160.4c14.8,20.5,29.7,41.2,44.8,61.5c71.7-28.7,96.5-94.5,112.6-164.2
					c-18.9-19.5-38.3-37.5-60.5-53.3C117.7,68.7,95.9,127.4,32,157"/>
			</g>
		</g>
	</g>
</g>
<g id="Calque_1_1_">
	<g id="XMLID_1_">
		<g id="XMLID_37_" class="st2">
			<path id="XMLID_14_" class="st1" d="M81.4,7.6"/>
			<line id="XMLID_5_" class="st3" x1="7.6" y1="224.5" x2="7.6" y2="7.6"/>
		</g>
		<g id="XMLID_33_">
			<rect id="XMLID_35_" x="4.7" y="4.5" class="st1" width="73.8" height="216.9"/>
			<rect id="XMLID_34_" x="4.7" y="4.5" class="st1" width="73.8" height="216.9"/>
		</g>
	</g>
</g>
<g id="Calque_3">
</g>
<g id="Calque_6">
	<rect id="XMLID_8_" x="52.5" y="-184.8" class="st3" width="197" height="399.4"/>
</g>
<g id="Calque_7">
	<rect id="XMLID_13_" x="184.4" y="202.8" class="st3" width="174.6" height="108.2"/>
</g>
<rect x="37.2" y="234.4" class="st3" width="235.9" height="40.7"/>
</svg>
