<?xml version="1.0" encoding="utf-8"?>
<!-- Generator: Adobe Illustrator 19.2.0, SVG Export Plug-In . SVG Version: 6.00 Build 0)  -->
<svg version="1.1" id="Calque_1" xmlns="http://www.w3.org/2000/svg" xmlns:xlink="http://www.w3.org/1999/xlink" x="0px" y="0px"
	 viewBox="0 0 32 32" style="enable-background:new 0 0 32 32;" xml:space="preserve">
<style type="text/css">
	.st0{fill:#3D8EB9;}
	.st1{fill:#FFFFFF;}
</style>
<g id="Flat_copy">
	<g>
		<path class="st0" d="M16,0C7.2,0,0,7.2,0,16c0,8.8,7.2,16,16,16s16-7.2,16-16C32,7.2,24.8,0,16,0z"/>
	</g>
	<g>
		<path class="st1" d="M16,15.2c0,0,6.3,0,7.1,0.8c0.8,0.8,0.8,4.5,0.8,4.5c0,0,0,3.7-0.8,4.5c-0.8,0.7-7.1,0.8-7.1,0.8
			s-6.3,0-7.1-0.8c-0.8-0.8-0.8-4.5-0.8-4.5c0,0,0-3.7,0.8-4.5C9.7,15.2,16,15.2,16,15.2z"/>
		<path class="st0" d="M22.5,21.3v-1.2c0-0.4-0.1-0.8-0.3-1c-0.2-0.2-0.5-0.4-1-0.4c-0.4,0-0.7,0.1-1,0.4c-0.3,0.3-0.4,0.6-0.4,1
			v2.1c0,0.4,0.1,0.8,0.4,1.1c0.2,0.3,0.6,0.4,1,0.4c0.5,0,0.8-0.1,1-0.4c0.2-0.2,0.3-0.6,0.3-1.1V22h-0.9v0.2c0,0.3,0,0.5-0.1,0.5
			s-0.2,0.1-0.3,0.1c-0.1,0-0.2,0-0.3-0.1c-0.1-0.1-0.1-0.3-0.1-0.5v-0.9H22.5z M20.7,20.6v-0.5c0-0.2,0-0.3,0.1-0.4
			c0.1-0.1,0.2-0.1,0.3-0.1c0.1,0,0.2,0,0.3,0.1c0.1,0.1,0.1,0.2,0.1,0.4v0.5H20.7z"/>
		<path class="st0" d="M19.1,19.1c-0.2-0.2-0.4-0.3-0.7-0.3c-0.1,0-0.3,0-0.4,0.1c-0.1,0.1-0.3,0.2-0.4,0.3v-2h-0.9v6.3h0.9v-0.4
			c0.1,0.1,0.3,0.2,0.4,0.3c0.1,0.1,0.3,0.1,0.5,0.1c0.3,0,0.5-0.1,0.6-0.3c0.1-0.2,0.2-0.4,0.2-0.8V20
			C19.3,19.6,19.2,19.3,19.1,19.1z M18.4,22.4c0,0.1,0,0.3-0.1,0.3c-0.1,0.1-0.1,0.1-0.2,0.1c-0.1,0-0.1,0-0.2,0
			c-0.1,0-0.1-0.1-0.2-0.2v-2.9c0.1-0.1,0.1-0.1,0.2-0.1c0.1,0,0.1,0,0.2,0c0.1,0,0.2,0,0.3,0.1c0.1,0.1,0.1,0.2,0.1,0.4
			C18.4,20,18.4,22.4,18.4,22.4z"/>
		<path class="st0" d="M15.1,23.5V23c-0.2,0.2-0.3,0.3-0.5,0.4c-0.2,0.1-0.4,0.1-0.5,0.1c-0.2,0-0.4-0.1-0.5-0.2
			c-0.1-0.1-0.2-0.3-0.2-0.6v-3.9h0.9v3.6c0,0.1,0,0.2,0.1,0.2c0,0,0.1,0.1,0.2,0.1c0.1,0,0.2,0,0.3-0.1c0.1-0.1,0.2-0.1,0.3-0.2
			v-3.5H16v4.7H15.1L15.1,23.5z"/>
		<polygon class="st0" points="11.9,18.1 11.9,23.5 10.9,23.5 10.9,18.1 9.8,18.1 9.8,17.2 13,17.2 13,18.1 		"/>
		<path class="st1" d="M21.1,13.3h-1v-0.6c-0.2,0.2-0.4,0.4-0.6,0.5c-0.2,0.1-0.4,0.2-0.6,0.2c-0.2,0-0.4-0.1-0.5-0.2
			c-0.1-0.2-0.2-0.4-0.2-0.7V8.1h1v3.9c0,0.1,0,0.2,0.1,0.3c0,0.1,0.1,0.1,0.2,0.1c0.1,0,0.2,0,0.3-0.1c0.1-0.1,0.2-0.2,0.3-0.3V8.1
			h1L21.1,13.3L21.1,13.3z"/>
		<path class="st1" d="M17,8.4c-0.3-0.2-0.6-0.4-1-0.4c-0.5,0-0.8,0.1-1.1,0.4c-0.3,0.2-0.4,0.6-0.4,0.9V12c0,0.4,0.1,0.8,0.4,1
			c0.3,0.3,0.6,0.4,1.1,0.4c0.5,0,0.8-0.1,1.1-0.4c0.3-0.3,0.4-0.6,0.4-1V9.3C17.4,8.9,17.2,8.6,17,8.4z M16.3,12.1
			c0,0.1,0,0.2-0.1,0.3c-0.1,0.1-0.2,0.1-0.3,0.1c-0.1,0-0.2,0-0.3-0.1c-0.1-0.1-0.1-0.2-0.1-0.3V9.3c0-0.1,0-0.2,0.1-0.3
			c0.1-0.1,0.2-0.1,0.3-0.1c0.1,0,0.2,0,0.3,0.1c0.1,0.1,0.1,0.2,0.1,0.3V12.1z"/>
		<polygon class="st1" points="11.6,6.3 10.4,6.3 11.8,10.5 11.8,13.3 12.9,13.3 12.9,10.4 14.3,6.3 13.1,6.3 12.4,9.1 12.3,9.1 		
			"/>
	</g>
</g>
</svg>
